<svg width="512" height="512" viewBox="0 0 512 512" fill="none" xmlns="http://www.w3.org/2000/svg">
<rect width="512" height="512" fill="#B4451F"/>
<path d="M341.781 242C348.448 246.583 353.865 252.365 358.031 259.344C362.198 266.219 364.281 274.344 364.281 283.719C364.281 294.969 361.885 304.5 357.094 312.312C352.406 320.021 345.635 326.115 336.781 330.594C327.406 335.385 316.573 338.771 304.281 340.75C292.094 342.729 277.719 343.719 261.156 343.719H146V331.531C149.229 331.219 153.292 330.75 158.188 330.125C163.083 329.5 166.521 328.771 168.5 327.938C172.354 326.375 174.958 324.344 176.312 321.844C177.771 319.24 178.5 315.906 178.5 311.844V155.594C178.5 151.844 177.927 148.719 176.781 146.219C175.635 143.719 172.875 141.531 168.5 139.656C165.271 138.302 161.521 137.208 157.25 136.375C152.979 135.438 149.229 134.708 146 134.188V122H266.469C296.781 122 318.656 126.167 332.094 134.5C345.531 142.833 352.25 155.125 352.25 171.375C352.25 178.875 350.74 185.49 347.719 191.219C344.698 196.844 340.375 201.74 334.75 205.906C329.646 209.76 323.552 213.094 316.469 215.906C309.385 218.719 301.781 221.062 293.656 222.938V225.906C301.781 226.74 310.219 228.562 318.969 231.375C327.719 234.083 335.323 237.625 341.781 242ZM291.469 175.281C291.469 162.99 287.979 153.406 281 146.531C274.125 139.656 263.76 136.219 249.906 136.219C247.927 136.219 245.323 136.323 242.094 136.531C238.969 136.635 236.26 136.74 233.969 136.844V219.031H242.094C258.969 219.031 271.417 215.125 279.438 207.312C287.458 199.396 291.469 188.719 291.469 175.281ZM302.406 281.688C302.406 266.271 297.823 254.448 288.656 246.219C279.49 237.99 266.312 233.875 249.125 233.875C247.146 233.875 244.49 233.979 241.156 234.188C237.927 234.292 235.531 234.396 233.969 234.5V315.594C234.906 319.448 237.823 322.729 242.719 325.438C247.615 328.042 253.552 329.344 260.531 329.344C272.927 329.344 282.979 325.177 290.688 316.844C298.5 308.51 302.406 296.792 302.406 281.688Z" fill="#FAFAF7"/>
<rect x="147.969" y="373.719" width="219" height="17" fill="#FAFAF7"/>
</svg>
